<svg xmlns="http://www.w3.org/2000/svg" viewBox="0 0 32 32"><path d="M16 1.04c-8.28 0-15 6.72-15 15 .79 19.9 29.21 19.89 30 0 0-8.28-6.72-15-15-15m6.28 21.22c-3.24 4.75-13.46 3.33-13.16-3.28h2.16c-.1 2.74 2.54 4.22 4.99 4.13 1.43-.02 3.14-.29 3.96-1.58.85-1.39.3-3.31-1.33-3.88-2.78-1.26-6.91-.78-8.78-3.6-1.04-1.84-.32-4.63 1.46-5.76 3.74-2.54 10.72-1.19 10.6 4.21h-2.16c-.23-2.48-1.91-3.49-4.25-3.5-1.31 0-2.83.3-3.52 1.52-.75 1.42-.22 2.97 1.39 3.49 2.38.91 5.37.9 7.54 2.4 1.83 1.16 2.21 4.06 1.1 5.84Z" style="fill:#b8860b"/><path d="M0 0h32v32H0z" style="fill:none"/></svg>